<svg width="58" height="58" viewBox="0 0 58 58" fill="none" xmlns="http://www.w3.org/2000/svg">
<path d="M13.6873 2.9375C13.6873 2.35734 13.9177 1.80094 14.328 1.3907C14.7382 0.980469 15.2946 0.75 15.8748 0.75H42.1248C42.7049 0.75 43.2613 0.980469 43.6716 1.3907C44.0818 1.80094 44.3123 2.35734 44.3123 2.9375C44.3123 3.51766 44.0818 4.07406 43.6716 4.4843C43.2613 4.89453 42.7049 5.125 42.1248 5.125H15.8748C15.2946 5.125 14.7382 4.89453 14.328 4.4843C13.9177 4.07406 13.6873 3.51766 13.6873 2.9375ZM57.2705 28.3508C57.105 27.951 56.8247 27.6093 56.465 27.3689C56.1053 27.1285 55.6824 27.0001 55.2498 27H44.3123V20.4375C44.3123 19.8573 44.0818 19.3009 43.6716 18.8907C43.2613 18.4805 42.7049 18.25 42.1248 18.25H15.8748C15.2946 18.25 14.7382 18.4805 14.328 18.8907C13.9177 19.3009 13.6873 19.8573 13.6873 20.4375V27H2.74977C2.31687 26.9997 1.89361 27.1278 1.53356 27.3681C1.17351 27.6085 0.892866 27.9502 0.727158 28.3501C0.561449 28.7501 0.518127 29.1902 0.602674 29.6147C0.687222 30.0393 0.895839 30.4292 1.20211 30.7352L27.4521 56.9852C27.6553 57.1885 27.8965 57.3499 28.1621 57.46C28.4276 57.5701 28.7123 57.6267 28.9998 57.6267C29.2872 57.6267 29.5719 57.5701 29.8374 57.46C30.103 57.3499 30.3443 57.1885 30.5474 56.9852L56.7974 30.7352C57.1032 30.4291 57.3114 30.0391 57.3956 29.6147C57.4798 29.1903 57.4363 28.7504 57.2705 28.3508ZM15.8748 13.875H42.1248C42.7049 13.875 43.2613 13.6445 43.6716 13.2343C44.0818 12.8241 44.3123 12.2677 44.3123 11.6875C44.3123 11.1073 44.0818 10.5509 43.6716 10.1407C43.2613 9.73047 42.7049 9.5 42.1248 9.5H15.8748C15.2946 9.5 14.7382 9.73047 14.328 10.1407C13.9177 10.5509 13.6873 11.1073 13.6873 11.6875C13.6873 12.2677 13.9177 12.8241 14.328 13.2343C14.7382 13.6445 15.2946 13.875 15.8748 13.875Z" fill="black"/>
</svg>
