<svg width="176" height="150" viewBox="0 0 176 150" fill="none" xmlns="http://www.w3.org/2000/svg">
<path d="M175.5 48.4375C175.5 103.125 94.4141 147.391 90.9609 149.219C90.0508 149.708 89.0335 149.965 88 149.965C86.9665 149.965 85.9492 149.708 85.0391 149.219C81.5859 147.391 0.5 103.125 0.5 48.4375C0.514475 35.5955 5.62235 23.2837 14.703 14.203C23.7837 5.12235 36.0955 0.0144745 48.9375 0C65.0703 0 79.1953 6.9375 88 18.6641C96.8047 6.9375 110.93 0 127.062 0C139.904 0.0144745 152.216 5.12235 161.297 14.203C170.378 23.2837 175.486 35.5955 175.5 48.4375Z" fill="#FF3D00"/>
</svg>
