<svg width="58" height="58" viewBox="0 0 58 58" fill="none" xmlns="http://www.w3.org/2000/svg">
<path d="M42.125 0.5625H15.875C11.8152 0.566843 7.92293 2.18151 5.05222 5.05222C2.18151 7.92293 0.566843 11.8152 0.5625 15.875V42.125C0.566843 46.1848 2.18151 50.0771 5.05222 52.9478C7.92293 55.8185 11.8152 57.4332 15.875 57.4375H42.125C46.1848 57.4332 50.0771 55.8185 52.9478 52.9478C55.8185 50.0771 57.4332 46.1848 57.4375 42.125V15.875C57.4332 11.8152 55.8185 7.92293 52.9478 5.05222C50.0771 2.18151 46.1848 0.566843 42.125 0.5625ZM29 42.125C26.4041 42.125 23.8665 41.3552 21.7081 39.913C19.5497 38.4708 17.8675 36.421 16.8741 34.0227C15.8807 31.6244 15.6208 28.9854 16.1272 26.4394C16.6336 23.8934 17.8837 21.5548 19.7192 19.7192C21.5548 17.8837 23.8934 16.6336 26.4394 16.1272C28.9854 15.6208 31.6244 15.8807 34.0227 16.8741C36.421 17.8675 38.4708 19.5497 39.913 21.7081C41.3552 23.8665 42.125 26.4041 42.125 29C42.1214 32.4799 40.7374 35.8162 38.2768 38.2768C35.8162 40.7374 32.4799 42.1214 29 42.125ZM45.4062 15.875C44.7573 15.875 44.1229 15.6826 43.5833 15.322C43.0437 14.9615 42.6231 14.449 42.3748 13.8494C42.1264 13.2499 42.0614 12.5901 42.188 11.9536C42.3147 11.3171 42.6272 10.7324 43.0861 10.2736C43.5449 9.81466 44.1296 9.50216 44.7661 9.37555C45.4026 9.24894 46.0624 9.31392 46.6619 9.56227C47.2615 9.81062 47.774 10.2312 48.1345 10.7708C48.4951 11.3104 48.6875 11.9448 48.6875 12.5938C48.6875 13.464 48.3418 14.2986 47.7264 14.9139C47.1111 15.5293 46.2765 15.875 45.4062 15.875ZM37.75 29C37.75 30.7306 37.2368 32.4223 36.2754 33.8612C35.3139 35.3002 33.9473 36.4217 32.3485 37.0839C30.7496 37.7462 28.9903 37.9195 27.293 37.5819C25.5956 37.2443 24.0365 36.4109 22.8128 35.1872C21.5891 33.9635 20.7557 32.4044 20.4181 30.707C20.0805 29.0097 20.2538 27.2504 20.9161 25.6515C21.5783 24.0527 22.6998 22.6861 24.1388 21.7246C25.5777 20.7632 27.2694 20.25 29 20.25C31.3206 20.25 33.5462 21.1719 35.1872 22.8128C36.8281 24.4538 37.75 26.6794 37.75 29Z" fill="white"/>
</svg>
