<svg width="62" height="56" viewBox="0 0 62 56" fill="none" xmlns="http://www.w3.org/2000/svg">
<path d="M60.7719 1.16131C60.433 0.868649 60.0206 0.674008 59.5792 0.598359C59.1379 0.522711 58.6842 0.568923 58.2672 0.732018L2.85234 22.4183C2.06699 22.7237 1.4021 23.276 0.957762 23.9919C0.513429 24.7079 0.313705 25.5489 0.388659 26.3882C0.463613 27.2275 0.809188 28.0197 1.37336 28.6456C1.93753 29.2715 2.68976 29.6972 3.5168 29.8586L17.875 32.6777V48.6875C17.8722 49.5595 18.1313 50.4123 18.6189 51.1353C19.1064 51.8584 19.7999 52.4183 20.6094 52.7426C21.4176 53.0726 22.3065 53.1518 23.1604 52.9699C24.0143 52.788 24.7937 52.3534 25.3973 51.7226L32.3207 44.5422L43.3047 54.1562C44.0972 54.8592 45.1192 55.2481 46.1785 55.25C46.6427 55.2496 47.104 55.1767 47.5457 55.034C48.2674 54.805 48.9166 54.3909 49.4285 53.8329C49.9404 53.275 50.2971 52.5926 50.4633 51.8539L61.5621 3.5703C61.6614 3.13485 61.6403 2.68059 61.5011 2.25621C61.3619 1.83184 61.1098 1.45335 60.7719 1.16131ZM46.184 50.875L23.5762 31.0508L56.1152 7.72928L46.184 50.875Z" fill="white"/>
</svg>
