<svg width="47" height="47" viewBox="0 0 47 47" fill="none" xmlns="http://www.w3.org/2000/svg">
<path d="M23.8665 46.2109C28.4161 46.2109 32.8635 44.879 36.6463 42.3835C40.4292 39.8879 43.3775 36.341 45.1186 32.1911C46.8596 28.0412 47.3151 23.4748 46.4276 19.0693C45.54 14.6638 43.3492 10.6171 40.1321 7.44094C36.9151 4.26476 32.8163 2.10175 28.3542 1.22544C23.892 0.349138 19.2669 0.798891 15.0636 2.51783C10.8604 4.23676 7.2678 7.14768 4.74019 10.8825C2.21258 14.6173 0.863478 19.0082 0.863478 23.5C0.870637 29.5211 3.29646 35.2936 7.60882 39.5512C11.9212 43.8088 17.7679 46.2039 23.8665 46.2109ZM23.8665 3.46094C27.8808 3.46094 31.805 4.63621 35.1428 6.83813C38.4806 9.04005 41.0821 12.1697 42.6183 15.8314C44.1545 19.493 44.5565 23.5222 43.7733 27.4094C42.9902 31.2966 41.0571 34.8672 38.2185 37.6698C35.38 40.4723 31.7634 42.3808 27.8262 43.154C23.889 43.9272 19.808 43.5304 16.0993 42.0137C12.3905 40.497 9.22059 37.9285 6.99035 34.6331C4.7601 31.3377 3.56972 27.4633 3.56972 23.5C3.57569 18.1871 5.71601 13.0935 9.52111 9.33675C13.3262 5.57997 18.4853 3.46683 23.8665 3.46094ZM17.4978 24.4441C17.2444 24.1936 17.1021 23.854 17.1021 23.5C17.1021 23.146 17.2444 22.8064 17.4978 22.5559L26.5186 13.6497C26.7751 13.4137 27.1144 13.2852 27.465 13.2913C27.8155 13.2974 28.15 13.4377 28.3979 13.6824C28.6458 13.9272 28.7878 14.2574 28.794 14.6035C28.8002 14.9496 28.6701 15.2846 28.431 15.5378L20.3687 23.5L28.431 31.4622C28.6701 31.7154 28.8002 32.0504 28.794 32.3965C28.7878 32.7426 28.6458 33.0728 28.3979 33.3176C28.15 33.5623 27.8155 33.7025 27.465 33.7087C27.1144 33.7148 26.7751 33.5863 26.5186 33.3503L17.4978 24.4441Z" fill="black"/>
</svg>
