<svg width="18" height="24" viewBox="0 0 18 24" fill="none" xmlns="http://www.w3.org/2000/svg">
<path d="M10.625 0.625H7.375C5.65167 0.626882 3.99946 1.31231 2.78088 2.53088C1.56231 3.74946 0.876882 5.40167 0.875 7.125V16.875C0.876882 18.5983 1.56231 20.2505 2.78088 21.4691C3.99946 22.6877 5.65167 23.3731 7.375 23.375H10.625C12.3483 23.3731 14.0005 22.6877 15.2191 21.4691C16.4377 20.2505 17.1231 18.5983 17.125 16.875V7.125C17.1231 5.40167 16.4377 3.74946 15.2191 2.53088C14.0005 1.31231 12.3483 0.626882 10.625 0.625ZM9.8125 10.375C9.8125 10.5905 9.7269 10.7972 9.57452 10.9495C9.42215 11.1019 9.21549 11.1875 9 11.1875C8.78451 11.1875 8.57785 11.1019 8.42548 10.9495C8.2731 10.7972 8.1875 10.5905 8.1875 10.375V5.5C8.1875 5.28451 8.2731 5.07785 8.42548 4.92548C8.57785 4.7731 8.78451 4.6875 9 4.6875C9.21549 4.6875 9.42215 4.7731 9.57452 4.92548C9.7269 5.07785 9.8125 5.28451 9.8125 5.5V10.375Z" fill="white"/>
</svg>
