<svg width="47" height="47" viewBox="0 0 47 47" fill="none" xmlns="http://www.w3.org/2000/svg">
<path d="M23.1334 0.789062C18.5839 0.789062 14.1364 2.12104 10.3536 4.61655C6.57079 7.11205 3.62243 10.659 1.88138 14.8089C0.140338 18.9588 -0.315199 23.5252 0.572379 27.9307C1.45996 32.3362 3.65078 36.3829 6.86782 39.5591C10.0848 42.7352 14.1836 44.8982 18.6458 45.7746C23.1079 46.6509 27.733 46.2011 31.9363 44.4822C36.1396 42.7632 39.7321 39.8523 42.2598 36.1175C44.7874 32.3827 46.1365 27.9918 46.1365 23.5C46.1293 17.4789 43.7035 11.7063 39.3911 7.44875C35.0788 3.19116 29.232 0.796134 23.1334 0.789062ZM23.1334 43.5391C19.1191 43.5391 15.1949 42.3638 11.8571 40.1619C8.51933 37.9599 5.91784 34.8303 4.38162 31.1686C2.84541 27.507 2.44346 23.4778 3.22662 19.5906C4.00978 15.7034 5.94286 12.1328 8.78142 9.33024C11.62 6.52773 15.2365 4.61919 19.1737 3.84598C23.1109 3.07277 27.1919 3.46961 30.9007 4.98632C34.6094 6.50303 37.7794 9.07149 40.0096 12.3669C42.2398 15.6623 43.4302 19.5366 43.4302 23.5C43.4243 28.8129 41.2839 33.9065 37.4788 37.6632C33.6737 41.42 28.5146 43.5332 23.1334 43.5391ZM29.5021 22.5559C29.7555 22.8064 29.8978 23.146 29.8978 23.5C29.8978 23.854 29.7555 24.1936 29.5021 24.4441L20.4813 33.3503C20.2248 33.5863 19.8855 33.7148 19.535 33.7087C19.1844 33.7025 18.85 33.5623 18.6021 33.3176C18.3541 33.0728 18.2121 32.7426 18.2059 32.3965C18.1998 32.0504 18.3299 31.7154 18.5689 31.4622L26.6312 23.5L18.5689 15.5378C18.3299 15.2846 18.1998 14.9496 18.2059 14.6035C18.2121 14.2574 18.3541 13.9272 18.6021 13.6824C18.85 13.4377 19.1844 13.2975 19.535 13.2913C19.8855 13.2852 20.2248 13.4137 20.4813 13.6497L29.5021 22.5559Z" fill="black"/>
</svg>
